REM DIRINDEX 1\2\6,1\2\7,1\2\8,1\2\9,1\3\10,1\3\11,1\4\12,1\4\13,1\4\14,1\5\15,1\5\16,1\5\17
REM DIRNAME cjc020,folder01,folder02,folder03,folder04,folder05,folder06,folder07,folder08,folder09,folder10,folder11,folder12,folder13,folder14,folder15,folder16
TITLE ""
FILE "1900_3_052 sec09_0851_0868.mp3" MP3
  TRACK 01 AUDIO
    TITLE "0:"
    INDEX 01 00:00:00
  TRACK 02 AUDIO
    TITLE "17:cjc020_7677"
    INDEX 01 00:00:15
  TRACK 03 AUDIO
    TITLE "0:"
    INDEX 01 00:01:26
  TRACK 04 AUDIO
    TITLE "16:cjc020_7678"
    INDEX 01 00:01:30
  TRACK 05 AUDIO
    TITLE "0:"
    INDEX 01 00:02:61
  TRACK 06 AUDIO
    TITLE "17:cjc020_7679"
    INDEX 01 00:03:41
  TRACK 07 AUDIO
    TITLE "0:"
    INDEX 01 00:04:54
  TRACK 08 AUDIO
    TITLE "16:cjc020_7680"
    INDEX 01 00:04:56
  TRACK 09 AUDIO
    TITLE "0:"
    INDEX 01 00:05:67
  TRACK 10 AUDIO
    TITLE "17:cjc020_7681"
    INDEX 01 00:06:39
  TRACK 11 AUDIO
    TITLE "0:"
    INDEX 01 00:07:49
  TRACK 12 AUDIO
    TITLE "16:cjc020_7682"
    INDEX 01 00:07:56
  TRACK 13 AUDIO
    TITLE "0:"
    INDEX 01 00:08:62
  TRACK 14 AUDIO
    TITLE "17:cjc020_7683"
    INDEX 01 00:09:45
  TRACK 15 AUDIO
    TITLE "0:"
    INDEX 01 00:11:56
  TRACK 16 AUDIO
    TITLE "16:cjc020_7684"
    INDEX 01 00:11:66
  TRACK 17 AUDIO
    TITLE "0:"
    INDEX 01 00:12:67
  TRACK 18 AUDIO
    TITLE "17:cjc020_7685"
    INDEX 01 00:13:49
  TRACK 19 AUDIO
    TITLE "0:"
    INDEX 01 00:14:60
  TRACK 20 AUDIO
    TITLE "16:cjc020_7686"
    INDEX 01 00:14:72
  TRACK 21 AUDIO
    TITLE "0:"
    INDEX 01 00:16:08
  TRACK 22 AUDIO
    TITLE "17:cjc020_7687"
    INDEX 01 00:16:67
  TRACK 23 AUDIO
    TITLE "0:"
    INDEX 01 00:18:05
  TRACK 24 AUDIO
    TITLE "16:cjc020_7688"
    INDEX 01 00:18:11
  TRACK 25 AUDIO
    TITLE "0:"
    INDEX 01 00:19:26
  TRACK 26 AUDIO
    TITLE "17:cjc020_7689"
    INDEX 01 00:20:12
  TRACK 27 AUDIO
    TITLE "0:"
    INDEX 01 00:21:23
  TRACK 28 AUDIO
    TITLE "16:cjc020_7690"
    INDEX 01 00:21:29
  TRACK 29 AUDIO
    TITLE "0:"
    INDEX 01 00:22:23
  TRACK 30 AUDIO
    TITLE "17:cjc020_7691"
    INDEX 01 00:23:10
  TRACK 31 AUDIO
    TITLE "0:"
    INDEX 01 00:24:59
  TRACK 32 AUDIO
    TITLE "16:cjc020_7692"
    INDEX 01 00:24:65
  TRACK 33 AUDIO
    TITLE "0:"
    INDEX 01 00:25:66
  TRACK 34 AUDIO
    TITLE "17:cjc020_7693"
    INDEX 01 00:26:50
  TRACK 35 AUDIO
    TITLE "0:"
    INDEX 01 00:27:47
  TRACK 36 AUDIO
    TITLE "16:cjc020_7694"
    INDEX 01 00:27:51
  TRACK 37 AUDIO
    TITLE "0:"
    INDEX 01 00:28:60
  TRACK 38 AUDIO
    TITLE "17:cjc020_7695"
    INDEX 01 00:29:42
  TRACK 39 AUDIO
    TITLE "0:"
    INDEX 01 00:30:50
  TRACK 40 AUDIO
    TITLE "16:cjc020_7696"
    INDEX 01 00:30:57
  TRACK 41 AUDIO
    TITLE "0:"
    INDEX 01 00:32:05
  TRACK 42 AUDIO
    TITLE "17:cjc020_7697"
    INDEX 01 00:32:66
  TRACK 43 AUDIO
    TITLE "0:"
    INDEX 01 00:35:29
  TRACK 44 AUDIO
    TITLE "16:cjc020_7698"
    INDEX 01 00:35:35
  TRACK 45 AUDIO
    TITLE "0:"
    INDEX 01 00:36:44
  TRACK 46 AUDIO
    TITLE "17:cjc020_7699"
    INDEX 01 00:37:28
  TRACK 47 AUDIO
    TITLE "0:"
    INDEX 01 00:39:17
  TRACK 48 AUDIO
    TITLE "16:cjc020_7700"
    INDEX 01 00:39:23
  TRACK 49 AUDIO
    TITLE "0:"
    INDEX 01 00:40:32
  TRACK 50 AUDIO
    TITLE "17:cjc020_7701"
    INDEX 01 00:41:16
  TRACK 51 AUDIO
    TITLE "0:"
    INDEX 01 00:43:17
  TRACK 52 AUDIO
    TITLE "16:cjc020_7702"
    INDEX 01 00:43:23
  TRACK 53 AUDIO
    TITLE "0:"
    INDEX 01 00:44:38
  TRACK 54 AUDIO
    TITLE "17:cjc020_7703"
    INDEX 01 00:45:22
  TRACK 55 AUDIO
    TITLE "0:"
    INDEX 01 00:46:29
  TRACK 56 AUDIO
    TITLE "16:cjc020_7704"
    INDEX 01 00:46:37
  TRACK 57 AUDIO
    TITLE "0:"
    INDEX 01 00:47:56
  TRACK 58 AUDIO
    TITLE "17:cjc020_7705"
    INDEX 01 00:48:40
  TRACK 59 AUDIO
    TITLE "0:"
    INDEX 01 00:49:53
  TRACK 60 AUDIO
    TITLE "16:cjc020_7706"
    INDEX 01 00:49:55
  TRACK 61 AUDIO
    TITLE "0:"
    INDEX 01 00:50:68
  TRACK 62 AUDIO
    TITLE "17:cjc020_7707"
    INDEX 01 00:51:52
  TRACK 63 AUDIO
    TITLE "0:"
    INDEX 01 00:52:53
  TRACK 64 AUDIO
    TITLE "16:cjc020_7708"
    INDEX 01 00:52:61
  TRACK 65 AUDIO
    TITLE "0:"
    INDEX 01 00:53:53
  TRACK 66 AUDIO
    TITLE "17:cjc020_7709"
    INDEX 01 00:54:38
  TRACK 67 AUDIO
    TITLE "0:"
    INDEX 01 00:57:17
  TRACK 68 AUDIO
    TITLE "16:cjc020_7710"
    INDEX 01 00:57:19
  TRACK 69 AUDIO
    TITLE "0:"
    INDEX 01 00:58:28
  TRACK 70 AUDIO
    TITLE "17:cjc020_7711"
    INDEX 01 00:59:12
  TRACK 71 AUDIO
    TITLE "0:"
    INDEX 01 01:00:15
  TRACK 72 AUDIO
    TITLE "16:cjc020_7712"
    INDEX 01 01:00:19
  TRACK 73 AUDIO
    TITLE "0:"
    INDEX 01 01:01:29
